<svg xmlns="http://www.w3.org/2000/svg" width="17.243" height="20.033" viewBox="0 0 17.243 20.033">
  <g id="Group_20658" data-name="Group 20658" transform="translate(3121.891 -858.802)">
    <g id="bag" transform="translate(-3121.641 859.052)">
      <path id="Path_3931" data-name="Path 3931" d="M16.867,10.2H4.376l-.93,10.786a1.2,1.2,0,0,0,1.2,1.2H16.6a1.2,1.2,0,0,0,1.2-1.2ZM3.18,9,2.25,20.984a2.394,2.394,0,0,0,2.392,2.4H16.6a2.394,2.394,0,0,0,2.392-2.4L18.063,9Z" transform="translate(-2.25 -3.848)" fill="#3290c8" stroke="#3290c8" stroke-width="0.5" fill-rule="evenodd"/>
      <path id="Path_3932" data-name="Path 3932" d="M14.347,2.331a3.092,3.092,0,0,0-2.987,2.6c0-.062-.029,4.826-.029,5.069H10.125c0-.014,0-4.679.013-4.984a4.156,4.156,0,0,1,4.209-3.889,4.289,4.289,0,0,1,4.218,4.044c-.005-.137,0,.95-.013,4.829h-1.19s0-4.654-.008-4.873A2.966,2.966,0,0,0,14.347,2.331Z" transform="translate(-5.976 -1.125)" fill="#3290c8" stroke="#3290c8" stroke-width="0.5"/>
    </g>
  </g>
</svg>
