<svg xmlns="http://www.w3.org/2000/svg" width="34.61" height="28.1" viewBox="0 0 34.61 28.1">
  <g id="Group_20765" data-name="Group 20765" transform="translate(0.1 -0.9)">
    <g id="cloud" transform="translate(0)">
      <path id="Path_63844" data-name="Path 63844" d="M33.965,15.793a6.781,6.781,0,0,0-2.958-2.35c.011-.2.018-.387.018-.574,0-5.477-4.888-7.933-9.667-7.933a8.486,8.486,0,0,0-7.428,4.8,5,5,0,0,0-2.82-.879c-3.048,0-5.528,2.841-5.528,6.335,0,.085,0,.171.006.257A7.723,7.723,0,0,0,1.1,22.708,8.232,8.232,0,0,0,3.067,28.14a6.262,6.262,0,0,0,4.739,2.254h9.235a1.167,1.167,0,0,0,0-2.313H7.8A4.377,4.377,0,0,1,4.494,26.5a5.756,5.756,0,0,1-1.376-3.8A5.254,5.254,0,0,1,6.9,17.431a1.016,1.016,0,0,0,.647-.5,1.29,1.29,0,0,0,.145-.878,4.716,4.716,0,0,1-.089-.864,3.8,3.8,0,0,1,3.509-4.022,3.308,3.308,0,0,1,2.47,1.151.929.929,0,0,0,.906.3,1.056,1.056,0,0,0,.729-.689,6.687,6.687,0,0,1,6.143-4.685c3.666,0,7.648,1.418,7.648,5.62a8.622,8.622,0,0,1-.1,1.237,1.154,1.154,0,0,0,.8,1.324,4.625,4.625,0,0,1,2.7,1.839c.705.977,1.218,1.693,1.079,2.292a1.018,1.018,0,1,0,2.018,0,6.149,6.149,0,0,0-1.545-3.768Z" transform="translate(-1.1 -3.935)" fill="#ef6024" stroke="#ef6024" stroke-width="0.2"/>
    </g>
    <g id="Layer_8" data-name="Layer 8" transform="translate(22.367 14.42)">
      <path id="Path_63848" data-name="Path 63848" d="M26.525,23.8v-.674a3.669,3.669,0,1,0-7.337,0V23.8a1.881,1.881,0,0,0-1.847,1.881v6.476a1.881,1.881,0,0,0,1.881,1.881H26.5a1.881,1.881,0,0,0,1.881-1.881V25.683A1.881,1.881,0,0,0,26.524,23.8Zm-6.208-.674a2.54,2.54,0,1,1,5.08,0V23.8h-5.08Z" transform="translate(-17.34 -19.46)" fill="#52b1e9"/>
      <path id="Path_63849" data-name="Path 63849" d="M29.792,39.426a1.918,1.918,0,0,0-.719,3.736v.9a.719.719,0,0,0,1.439,0v-.9a1.918,1.918,0,0,0-.719-3.736Zm0,1.439a.48.48,0,1,1-.48.48A.48.48,0,0,1,29.792,40.865Z" transform="translate(-24.276 -32.133)" fill="#fff"/>
    </g>
  </g>
</svg>
