<svg xmlns="http://www.w3.org/2000/svg" width="41.493" height="28.5" viewBox="0 0 41.493 28.5">
  <g id="commerce-and-shopping" transform="translate(-2347.94 -338)">
    <g id="Group_21045" data-name="Group 21045" transform="translate(2347.94 343.182)">
      <path id="Path_64496" data-name="Path 64496" d="M876.325,345.591H884.1a1.3,1.3,0,0,0,0-2.591h-7.772a1.3,1.3,0,1,0,0,2.591Z" transform="translate(-875.03 -343)" fill="#52b1e9" fill-rule="evenodd"/>
    </g>
    <g id="Group_21046" data-name="Group 21046" transform="translate(2351.218 347.716)">
      <path id="Path_64497" data-name="Path 64497" d="M669.3,345.591h7.773a1.3,1.3,0,1,0,0-2.591H669.3a1.3,1.3,0,1,0,0,2.591Z" transform="translate(-668 -343)" fill="#52b1e9" fill-rule="evenodd"/>
    </g>
    <g id="Group_21047" data-name="Group 21047" transform="translate(2353.731 352.25)">
      <path id="Path_64498" data-name="Path 64498" d="M547.356,345.591h7.771a1.3,1.3,0,0,0,0-2.591h-7.771a1.3,1.3,0,0,0,0,2.591Z" transform="translate(-546.061 -343)" fill="#52b1e9" fill-rule="evenodd"/>
    </g>
    <path id="Path_64499" data-name="Path 64499" d="M2364.954,363.261h12.307a1.3,1.3,0,0,0,0-2.591h-12.307a1.3,1.3,0,0,0,0,2.591Zm15.545-18.784h2.545a5.226,5.226,0,0,1,5.227,5.228v9.67a1.293,1.293,0,0,1-1.3,1.3h-3.239a1.3,1.3,0,0,0,0,2.591h3.239a3.888,3.888,0,0,0,3.886-3.886V349.7a7.816,7.816,0,0,0-7.818-7.819H2380.5V339.3a1.293,1.293,0,0,0-1.3-1.3H2353.3a1.293,1.293,0,0,0-1.3,1.3v1.3a1.3,1.3,0,1,0,2.591,0h23.318V352.25a1.3,1.3,0,0,0,2.591,0ZM2352,356.136v5.829a1.293,1.293,0,0,0,1.3,1.3h5.182a1.3,1.3,0,0,0,0-2.591h-3.886v-4.534a1.3,1.3,0,1,0-2.591,0Z" transform="translate(-1.43)" fill="#ef6024" fill-rule="evenodd"/>
    <g id="Group_21048" data-name="Group 21048" transform="translate(2355.751 357.432)">
      <path id="Path_64500" data-name="Path 64500" d="M766.534,277a4.534,4.534,0,1,0,4.534,4.534A4.537,4.537,0,0,0,766.534,277Zm0,2.591a1.943,1.943,0,1,1-1.943,1.943A1.944,1.944,0,0,1,766.534,279.591Z" transform="translate(-762 -277)" fill="#52b1e9" fill-rule="evenodd"/>
    </g>
    <g id="Group_21049" data-name="Group 21049" transform="translate(2374.535 357.432)">
      <path id="Path_64501" data-name="Path 64501" d="M766.534,277a4.534,4.534,0,1,0,4.534,4.534A4.537,4.537,0,0,0,766.534,277Zm0,2.591a1.943,1.943,0,1,1-1.943,1.943A1.944,1.944,0,0,1,766.534,279.591Z" transform="translate(-762 -277)" fill="#52b1e9" fill-rule="evenodd"/>
    </g>
  </g>
</svg>
