<svg xmlns="http://www.w3.org/2000/svg" width="17.559" height="17.559" viewBox="0 0 17.559 17.559">
  <path id="copy" d="M16.528,2H8.542A3.034,3.034,0,0,0,5.512,5.031v.481H5.031A3.034,3.034,0,0,0,2,8.542v7.985a3.034,3.034,0,0,0,3.031,3.031h7.985a3.025,3.025,0,0,0,2.991-2.634h.521a3.034,3.034,0,0,0,3.031-3.031V5.031A3.034,3.034,0,0,0,16.528,2ZM17.8,13.894a1.276,1.276,0,0,1-1.275,1.275h-.481V8.542a3.034,3.034,0,0,0-3.031-3.031H7.268V5.031A1.276,1.276,0,0,1,8.542,3.756h7.985A1.276,1.276,0,0,1,17.8,5.031Z" transform="translate(-2 -2)" fill="#e3ae30"/>
</svg>
