<svg xmlns="http://www.w3.org/2000/svg" width="36.548" height="26.544" viewBox="0 0 36.548 26.544">
  <g id="Group_21093" data-name="Group 21093" transform="translate(-6630 -3029.434)">
    <g id="ai_video_generator" transform="translate(6630 3029.434)">
      <path id="Path_64527" data-name="Path 64527" d="M33.431,16.913a1.319,1.319,0,0,1-1.32-1.32V12.122a1.32,1.32,0,0,0-1.32-1.32H4.96a1.321,1.321,0,0,0-1.32,1.32V30.746a1.321,1.321,0,0,0,1.32,1.32H20.9a1.32,1.32,0,1,1,0,2.64H4.96A3.965,3.965,0,0,1,1,30.746V12.122a3.965,3.965,0,0,1,3.96-3.96H30.791a3.965,3.965,0,0,1,3.96,3.96v3.471a1.319,1.319,0,0,1-1.32,1.32Z" transform="translate(-1 -8.162)" fill="#ef6024"/>
      <path id="Path_64528" data-name="Path 64528" d="M11.959,13.847a3.946,3.946,0,0,0-2.138,3.516v4.789a3.957,3.957,0,0,0,6.245,3.234l3.388-2.394a3.958,3.958,0,0,0,0-6.466l-3.388-2.394A3.95,3.95,0,0,0,11.959,13.847Zm6.53,5.912a1.3,1.3,0,0,1-.558,1.077L14.544,23.23a1.322,1.322,0,0,1-2.083-1.08V17.362a1.3,1.3,0,0,1,.713-1.172,1.3,1.3,0,0,1,1.369.094l3.388,2.394a1.313,1.313,0,0,1,.558,1.081Z" transform="translate(1.822 -6.485)" fill="#ef6024"/>
    </g>
    <g id="unlock_account" transform="translate(6653.303 3039.909)">
      <path id="Path_64531" data-name="Path 64531" d="M30.03,24.2V22.822a4.1,4.1,0,0,0-7.689-1.977,1.189,1.189,0,0,0,2.082,1.148,1.723,1.723,0,0,1,3.233.828v1.323H22.382a3.074,3.074,0,0,0-3.07,3.07v4.51a3.074,3.074,0,0,0,3.07,3.07h7.1a3.074,3.074,0,0,0,3.07-3.07v-4.51A3.075,3.075,0,0,0,30.03,24.2Zm.147,7.525a.694.694,0,0,1-.693.694h-7.1a.694.694,0,0,1-.693-.694v-4.51a.694.694,0,0,1,.693-.694h7.1a.694.694,0,0,1,.693.694Z" transform="translate(-19.312 -18.725)" fill="#5cb5ea"/>
    </g>
  </g>
</svg>
