<svg xmlns="http://www.w3.org/2000/svg" width="29.513" height="28.499" viewBox="0 0 29.513 28.499">
  <g id="Group_21090" data-name="Group 21090" transform="translate(2580 -2330)">
    <g id="approved" transform="translate(-2582 2328)">
      <path id="Path_64438" data-name="Path 64438" d="M16,2a7,7,0,1,0,7,7A7,7,0,0,0,16,2Zm0,2a5,5,0,1,1-5,5A5,5,0,0,1,16,4Z" fill="#ef6024" fill-rule="evenodd"/>
      <path id="Path_64439" data-name="Path 64439" d="M4,28H16a1,1,0,0,1,0,2H3a1,1,0,0,1-1-1V27a9,9,0,0,1,9-9h5a1,1,0,0,1,0,2H11a7,7,0,0,0-7,7Z" fill="#ef6024" fill-rule="evenodd"/>
    </g>
    <g id="Layer_129" data-name="Layer 129" transform="translate(-2566 2343.121)">
      <path id="Path_64446" data-name="Path 64446" d="M15.513,8.881c0-.676-.635-1.081-1.142-1.385a4.054,4.054,0,0,1-.453-.3,3.466,3.466,0,0,1,.2-.534c.223-.541.507-1.209.108-1.757s-1.128-.493-1.716-.439a3.993,3.993,0,0,1-.561,0c-.047-.122-.108-.372-.149-.534-.128-.574-.3-1.29-.953-1.5s-1.182.264-1.622.642a4.054,4.054,0,0,1-.466.4,4.054,4.054,0,0,1-.466-.365c-.439-.378-.986-.851-1.622-.642s-.824.912-.953,1.486c-.041.162-.1.412-.149.534a3.993,3.993,0,0,1-.561,0c-.588-.054-1.311-.115-1.716.439S3.176,6.145,3.4,6.685a3.466,3.466,0,0,1,.2.534,4.054,4.054,0,0,1-.453.3C2.635,7.8,2,8.205,2,8.881s.635,1.081,1.142,1.385a4.054,4.054,0,0,1,.453.3,3.466,3.466,0,0,1-.2.534c-.223.541-.507,1.209-.108,1.757s1.128.493,1.716.439a3.993,3.993,0,0,1,.561,0c.047.122.108.372.149.534.128.574.3,1.29.953,1.5s1.182-.264,1.622-.676a4.054,4.054,0,0,1,.466-.365,4.053,4.053,0,0,1,.466.365,2.182,2.182,0,0,0,1.3.676,1.081,1.081,0,0,0,.318-.054c.676-.209.824-.926.953-1.5.041-.162.1-.412.149-.534a3.993,3.993,0,0,1,.561,0c.588.054,1.311.115,1.716-.439s.115-1.216-.108-1.757a3.466,3.466,0,0,1-.2-.534,4.054,4.054,0,0,1,.453-.3C14.878,9.962,15.513,9.557,15.513,8.881Zm-4.2-1.27-2.7,3.378a.676.676,0,0,1-.486.257H8.081a.676.676,0,0,1-.48-.2L6.25,9.7a.678.678,0,1,1,.959-.959l.818.818,2.23-2.784a.676.676,0,0,1,1.054.838Z" transform="translate(0)" fill="#52b1e9"/>
    </g>
  </g>
</svg>
