<svg xmlns="http://www.w3.org/2000/svg" width="26.436" height="27" viewBox="0 0 26.436 27">
  <g id="Group_21092" data-name="Group 21092" transform="translate(-6586 -2893)">
    <g id="Assignment" transform="translate(6586 2893)">
      <g id="Group_21091" data-name="Group 21091" transform="translate(0 0)">
        <path id="Path_64520" data-name="Path 64520" d="M16.8,16.745c0-.439-.262-.795-.585-.795H10.745c-.323,0-.585.356-.585.795s.262.795.585.795h5.471C16.538,17.539,16.8,17.184,16.8,16.745Z" transform="translate(-3.325 -2.838)" fill="#ef6024"/>
        <path id="Path_64521" data-name="Path 64521" d="M10.648,20.125c-.272,0-.493.356-.493.795s.221.795.493.795h2.642c.272,0,.493-.356.493-.795s-.221-.795-.493-.795Z" transform="translate(-3.325 -3.326)" fill="#ef6024"/>
        <path id="Path_64522" data-name="Path 64522" d="M11.672,24.315H7.018a.9.9,0,0,1-.9-.9V11.137H8.972a2.487,2.487,0,0,0,2.484-2.484V5.8H21.615a.9.9,0,0,1,.9.9v4.68a.795.795,0,1,0,1.589,0V6.7a2.493,2.493,0,0,0-2.49-2.49h-.623V3.587A2.488,2.488,0,0,0,18.507,1.1H3.906A2.488,2.488,0,0,0,1.42,3.587V20.31A2.489,2.489,0,0,0,3.906,22.8h.623v.619a2.493,2.493,0,0,0,2.49,2.49h4.654a.795.795,0,1,0,0-1.589ZM9.865,8.654a.9.9,0,0,1-.895.895H6.118V9.109a.484.484,0,0,1,.13-.322L9.09,5.936A.47.47,0,0,1,9.42,5.8h.445ZM3.906,21.206a.9.9,0,0,1-.9-.9V3.587a.909.909,0,0,1,.9-.9h14.6a.9.9,0,0,1,.9.9v.622H9.42a2.041,2.041,0,0,0-1.454.6L5.113,7.675a2.06,2.06,0,0,0-.585,1.434v12.1Z" transform="translate(-1.42 -1.101)" fill="#ef6024"/>
      </g>
      <path id="Path_64523" data-name="Path 64523" d="M25.093,18.114a7.3,7.3,0,1,0,7.3,7.3A7.308,7.308,0,0,0,25.093,18.114Z" transform="translate(-5.956 -5.712)" fill="#52b1e9"/>
    </g>
    <g id="Layer_2" data-name="Layer 2" transform="translate(6600.01 2907.099)">
      <path id="Path_64525" data-name="Path 64525" d="M9.3,10.749h5.028a.348.348,0,0,0,.347-.347v-5.1a.347.347,0,0,0-.237-.33A4.152,4.152,0,0,1,12.08,2.13a1.266,1.266,0,0,0-2.432.7l.533,2.132H8.292A1.042,1.042,0,0,0,7.287,6.274L8.3,9.98a1.046,1.046,0,0,0,1.006.768Zm4.681-.695H9.3A.348.348,0,0,1,8.968,9.8L7.957,6.092a.348.348,0,0,1,.335-.439h2.333a.348.348,0,0,0,.337-.432l-.641-2.563a.571.571,0,0,1,1.1-.315,4.83,4.83,0,0,0,2.566,3.2Z" transform="translate(-7.25 -1.253)" fill="#fff"/>
      <path id="Path_64526" data-name="Path 64526" d="M2.061,14.967h.927a.812.812,0,0,0,.811-.811v-5.1a.812.812,0,0,0-.811-.811H2.061a.812.812,0,0,0-.811.811v5.1A.812.812,0,0,0,2.061,14.967Zm.927-6.023a.116.116,0,0,1,.116.116v5.1a.116.116,0,0,1-.116.116H2.061a.116.116,0,0,1-.116-.116v-5.1a.116.116,0,0,1,.116-.116Z" transform="translate(6.411 -5.008)" fill="#fff"/>
    </g>
  </g>
</svg>
