<svg xmlns="http://www.w3.org/2000/svg" width="37.966" height="28.5" viewBox="0 0 37.966 28.5">
  <g id="credit-card_1_" data-name="credit-card (1)" transform="translate(0 -38.218)">
    <g id="Group_20926" data-name="Group 20926" transform="translate(0 38.218)">
      <g id="Group_20925" data-name="Group 20925" transform="translate(0 0)">
        <path id="Path_64442" data-name="Path 64442" d="M36.78,139.86a1.187,1.187,0,0,1-1.186-1.186v-8.305H2.373v5.073H36.044a1.186,1.186,0,1,1,0,2.373H2.373v13.91H21.152a1.186,1.186,0,1,1,0,2.373H2.373A2.374,2.374,0,0,1,0,151.725V130.369A2.374,2.374,0,0,1,2.373,128h33.22a2.374,2.374,0,0,1,2.373,2.373v8.305A1.187,1.187,0,0,1,36.78,139.86Z" transform="translate(0 -127.996)" fill="#ef6024"/>
      </g>
    </g>
    <g id="Group_20928" data-name="Group 20928" transform="translate(4.746 57.037)">
      <g id="Group_20927" data-name="Group 20927" transform="translate(0 0)">
        <path id="Path_64443" data-name="Path 64443" d="M69.932,320H65.186a1.186,1.186,0,0,0,0,2.373h4.746a1.186,1.186,0,0,0,0-2.373Z" transform="translate(-64 -319.996)" fill="#ef6024"/>
      </g>
    </g>
    <g id="Group_20991" data-name="Group 20991" transform="translate(1)">
      <path id="Subtraction_7" data-name="Subtraction 7" d="M2708.18-2023.333a.788.788,0,0,1-.384-.1c-4.225-2.434-5.8-4.918-5.8-9.167v-3.089a.772.772,0,0,1,.468-.71l5.406-2.318a.8.8,0,0,1,.305-.061.8.8,0,0,1,.305.061l5.406,2.318a.772.772,0,0,1,.469.71v3.089c0,4.255-1.571,6.74-5.8,9.167A.779.779,0,0,1,2708.18-2023.333Zm-2.32-9.269a.761.761,0,0,0-.425.129.773.773,0,0,0-.215,1.07l1.545,2.317a.776.776,0,0,0,.61.345h.031a.769.769,0,0,0,.6-.291l3.091-3.862a.776.776,0,0,0-.121-1.086.772.772,0,0,0-.482-.167.774.774,0,0,0-.6.289l-2.429,3.037-.961-1.437A.776.776,0,0,0,2705.86-2032.6Z" transform="translate(-2677.76 2090.051)" fill="#52b1e9"/>
    </g>
  </g>
</svg>
