<svg id="downloads" xmlns="http://www.w3.org/2000/svg" width="17" height="17" viewBox="0 0 17 17">
  <g id="Group_21174" data-name="Group 21174" transform="translate(0 0)">
    <g id="Group_21173" data-name="Group 21173" transform="translate(0 0)">
      <g id="Group_21172" data-name="Group 21172">
        <path id="Path_64607" data-name="Path 64607" d="M13.222,17H3.778A3.778,3.778,0,0,1,0,13.222v-.944a.944.944,0,1,1,1.889,0v.944a1.889,1.889,0,0,0,1.889,1.889h9.444a1.889,1.889,0,0,0,1.889-1.889v-.944a.944.944,0,1,1,1.889,0v.944A3.778,3.778,0,0,1,13.222,17ZM8.5,13.222a.942.942,0,0,1-.66-.269h0l0,0h0l0,0L4.054,9.168A.944.944,0,1,1,5.39,7.832L7.556,10V.944a.944.944,0,1,1,1.889,0V10L11.61,7.832a.944.944,0,0,1,1.336,1.336L9.168,12.946l0,0h0l0,0h0l-.032.03a.938.938,0,0,1-.26.165h0a.94.94,0,0,1-.366.074Z" transform="translate(0 0)" fill="#d2a086"/>
      </g>
    </g>
  </g>
</svg>
