<svg xmlns="http://www.w3.org/2000/svg" width="20.944" height="15.75" viewBox="0 0 20.944 15.75">
  <path id="Vector" d="M7.854,15.75a3.054,3.054,0,0,1-2.927-2.187H.873a.868.868,0,0,1-.617-.256.877.877,0,0,1,0-1.238.868.868,0,0,1,.617-.257H4.928a3.052,3.052,0,0,1,5.854,0h9.291a.867.867,0,0,1,.617.257.877.877,0,0,1,0,1.238.867.867,0,0,1-.617.256H10.781A3.054,3.054,0,0,1,7.854,15.75Zm0-4.375a1.306,1.306,0,1,0,.255.025A1.306,1.306,0,0,0,7.854,11.375Zm6.981-5.25a3.056,3.056,0,0,1-2.927-2.188H.873a.875.875,0,0,1,0-1.75H11.909a3.052,3.052,0,0,1,5.854,0h2.309a.875.875,0,0,1,0,1.75H17.762a3.056,3.056,0,0,1-2.927,2.188Zm0-4.375a1.312,1.312,0,0,0-.256,2.6,1.319,1.319,0,0,0,.256.025,1.286,1.286,0,0,0,.5-.1,1.314,1.314,0,0,0,.425-2.14A1.318,1.318,0,0,0,14.836,1.75Z" fill="#d2a086"/>
</svg>
