<svg xmlns="http://www.w3.org/2000/svg" xmlns:xlink="http://www.w3.org/1999/xlink" width="17" height="18" viewBox="0 0 17 18">
  <defs>
    <linearGradient id="linear-gradient" x1="0.046" y1="0.046" x2="0.954" y2="0.954" gradientUnits="objectBoundingBox">
      <stop offset="0" stop-color="#fae100"/>
      <stop offset="0.15" stop-color="#fcb720"/>
      <stop offset="0.3" stop-color="#ff7950"/>
      <stop offset="0.5" stop-color="#ff1c74"/>
      <stop offset="1" stop-color="#6c1cd1"/>
    </linearGradient>
  </defs>
  <g id="Layer_2" data-name="Layer 2" transform="translate(-0.12)">
    <g id="Square" transform="translate(0 0)">
      <g id="_03.Instagram" data-name="03.Instagram">
        <rect id="Background" width="17" height="18" rx="4" transform="translate(0.12)" fill="url(#linear-gradient)"/>
        <g id="Group_20934" data-name="Group 20934" transform="translate(0.323)">
          <path id="Shade" d="M16.215.6A28.524,28.524,0,0,1,9.852,9.85,28.55,28.55,0,0,1,.6,16.215a2.7,2.7,0,0,1-.6-1.7V2.721A2.721,2.721,0,0,1,2.721,0H14.514a2.7,2.7,0,0,1,1.7.6Z" transform="translate(0 0)" fill="#fff" opacity="0.1"/>
          <g id="Icon" transform="translate(4.082 4.082)">
            <path id="Path_64447" data-name="Path 64447" d="M42.577,36H38.495A2.5,2.5,0,0,0,36,38.495v4.082a2.5,2.5,0,0,0,2.495,2.495h4.082a2.5,2.5,0,0,0,2.495-2.495V38.495A2.5,2.5,0,0,0,42.577,36Zm1.7,6.218a2.059,2.059,0,0,1-2.059,2.059H38.853a2.059,2.059,0,0,1-2.059-2.059V38.853a2.059,2.059,0,0,1,2.059-2.059h3.366a2.059,2.059,0,0,1,2.059,2.059Z" transform="translate(-36 -36)" fill="#fff"/>
            <path id="Path_64448" data-name="Path 64448" d="M59.585,56.036l-.022-.022L59.545,56a2.286,2.286,0,0,0-1.615-.667,2.327,2.327,0,0,0-2.311,2.344,2.353,2.353,0,0,0,.68,1.657,2.289,2.289,0,0,0,1.635.68,2.351,2.351,0,0,0,1.65-3.974ZM57.93,59.211a1.538,1.538,0,1,1,1.516-1.538A1.538,1.538,0,0,1,57.93,59.211Z" transform="translate(-53.395 -53.138)" fill="#fff"/>
            <path id="Path_64449" data-name="Path 64449" d="M93.84,50.036a.553.553,0,0,1-.55.558.545.545,0,0,1-.388-.162.559.559,0,0,1,.389-.951.547.547,0,0,1,.35.127l.011.011a.346.346,0,0,1,.05.05l.012.014A.558.558,0,0,1,93.84,50.036Z" transform="translate(-86.307 -47.951)" fill="#fff"/>
          </g>
        </g>
      </g>
    </g>
  </g>
</svg>
