<svg xmlns="http://www.w3.org/2000/svg" width="12.878" height="15.086" viewBox="0 0 12.878 15.086">
  <g id="Layer_2_00000175298027760071607930000009518027812218760881_" transform="translate(-37.566 -0.397)">
    <g id="Layer_1_copy_3" transform="translate(37.566 0.397)">
      <g id="_62" transform="translate(0 0)">
        <path id="Path_64551" data-name="Path 64551" d="M47,98.037a.594.594,0,0,0-.554,1.05,5.25,5.25,0,1,1-4.874,0,.594.594,0,0,0-.554-1.05,6.438,6.438,0,1,0,5.983,0Z" transform="translate(-37.566 -95.092)" fill="#ef6024"/>
        <path id="Path_64552" data-name="Path 64552" d="M236.493,7.42a.593.593,0,0,0,.593-.593V.978a.593.593,0,0,0-1.185,0V6.825A.593.593,0,0,0,236.493,7.42Z" transform="translate(-230.052 -0.397)" fill="#ef6024"/>
      </g>
    </g>
  </g>
</svg>
