<svg xmlns="http://www.w3.org/2000/svg" width="35.185" height="29" viewBox="0 0 35.185 29">
  <g id="team" transform="translate(0 -45)">
    <path id="Path_64580" data-name="Path 64580" d="M31.32,213.4a3.772,3.772,0,1,0-5.006,0,6.4,6.4,0,0,0-3.676,4.312,6.4,6.4,0,0,0-2.542-1.974,3.772,3.772,0,1,0-5.006,0,6.4,6.4,0,0,0-2.542,1.974A6.4,6.4,0,0,0,8.871,213.4a3.772,3.772,0,1,0-5.006,0A6.378,6.378,0,0,0,0,219.253v2.338a.756.756,0,0,0,.756.756H11.224v1.583a.756.756,0,0,0,.756.756H23.2a.756.756,0,0,0,.756-.756v-1.582H34.429a.756.756,0,0,0,.756-.756v-2.338A6.378,6.378,0,0,0,31.32,213.4Zm-2.5-5.081a2.261,2.261,0,1,1-2.261,2.261A2.263,2.263,0,0,1,28.817,208.317Zm-11.224,2.338a2.261,2.261,0,1,1-2.261,2.261A2.263,2.263,0,0,1,17.592,210.655ZM6.368,208.317a2.261,2.261,0,1,1-2.261,2.261A2.263,2.263,0,0,1,6.368,208.317ZM1.512,219.253a4.856,4.856,0,0,1,9.713,0v1.583H1.512Zm20.937,3.921H12.736v-1.583a4.856,4.856,0,0,1,9.712,0Zm11.224-2.338H23.961v-1.583a4.856,4.856,0,0,1,9.712,0Z" transform="translate(0 -150.686)" fill="#ef6024"/>
    <g id="Group_21120" data-name="Group 21120" transform="translate(4.025 45)">
      <path id="Path_64581" data-name="Path 64581" d="M196,82.432l-2.336-.387-1.09-2.1a.756.756,0,0,0-1.342,0l-1.09,2.1-2.337.387a.756.756,0,0,0-.415,1.277l1.663,1.686-.354,2.342a.756.756,0,0,0,1.086.789l2.118-1.06,2.118,1.06a.756.756,0,0,0,1.086-.789l-.354-2.342,1.663-1.686A.756.756,0,0,0,196,82.432Zm-2.59,2.171a.756.756,0,0,0-.209.644l.193,1.274-1.152-.577a.756.756,0,0,0-.677,0l-1.152.577.193-1.274a.756.756,0,0,0-.209-.644l-.9-.918,1.271-.21a.756.756,0,0,0,.548-.4l.593-1.144.593,1.144a.756.756,0,0,0,.548.4l1.271.21Z" transform="translate(-178.332 -77.161)" fill="#52b1e9"/>
      <path id="Path_64582" data-name="Path 64582" d="M65.951,47.373l-1.844-.305-.86-1.659a.756.756,0,0,0-1.342,0l-.86,1.659-1.844.305a.756.756,0,0,0-.415,1.277L60.1,49.98l-.279,1.848a.756.756,0,0,0,1.086.789l1.671-.837,1.671.837a.756.756,0,0,0,1.086-.789l-.279-1.848,1.312-1.331a.756.756,0,0,0-.415-1.277Zm-2.24,1.815a.756.756,0,0,0-.209.644l.118.78-.706-.353a.756.756,0,0,0-.677,0l-.706.353.118-.78a.756.756,0,0,0-.209-.644l-.554-.562.779-.129a.756.756,0,0,0,.548-.4l.363-.7.363.7a.756.756,0,0,0,.548.4l.779.129Z" transform="translate(-58.568 -45)" fill="#52b1e9"/>
      <path id="Path_64583" data-name="Path 64583" d="M344.777,47.885a.756.756,0,0,0-.6-.512l-1.844-.305-.86-1.659a.756.756,0,0,0-1.342,0l-.86,1.659-1.844.305a.756.756,0,0,0-.415,1.277l1.312,1.331-.279,1.848a.756.756,0,0,0,1.086.789l1.671-.837,1.671.837a.756.756,0,0,0,1.086-.789l-.279-1.848,1.312-1.331A.756.756,0,0,0,344.777,47.885Zm-2.835,1.3a.756.756,0,0,0-.209.644l.118.78-.706-.353a.756.756,0,0,0-.677,0l-.706.353.118-.78a.756.756,0,0,0-.209-.644l-.554-.562.779-.129a.756.756,0,0,0,.548-.4l.363-.7.363.7a.756.756,0,0,0,.548.4l.779.129Z" transform="translate(-317.679 -45)" fill="#52b1e9"/>
    </g>
  </g>
</svg>
