<svg xmlns="http://www.w3.org/2000/svg" width="38.712" height="31.179" viewBox="0 0 38.712 31.179">
  <g id="spanish-language" transform="translate(0 -49.813)">
    <g id="Group_21112" data-name="Group 21112" transform="translate(12.785 56.372)">
      <g id="Group_21111" data-name="Group 21111">
        <path id="Path_64564" data-name="Path 64564" d="M187.964,161.183a.831.831,0,0,1-.413-.11L182,157.9h-8.618a4.3,4.3,0,0,1-4.29-4.291v-3.1a.832.832,0,1,1,1.663,0v3.1a2.63,2.63,0,0,0,2.627,2.627h8.839a.831.831,0,0,1,.413.11l4.495,2.569v-1.846a.832.832,0,0,1,.832-.832h2.767a2.63,2.63,0,0,0,2.627-2.627V140.854a2.63,2.63,0,0,0-2.627-2.627H184.2a.832.832,0,1,1,0-1.663h6.533a4.3,4.3,0,0,1,4.291,4.291v12.759a4.3,4.3,0,0,1-4.291,4.291H188.8v2.448a.832.832,0,0,1-.832.832Z" transform="translate(-169.095 -136.563)" fill="#52b1e9"/>
      </g>
    </g>
    <g id="Group_21114" data-name="Group 21114" transform="translate(0 49.813)">
      <g id="Group_21113" data-name="Group 21113">
        <path id="Path_64565" data-name="Path 64565" d="M7.058,74.433a.832.832,0,0,1-.832-.832V71.153H4.291A4.3,4.3,0,0,1,0,66.863V54.1a4.3,4.3,0,0,1,4.291-4.291H24.429A4.3,4.3,0,0,1,28.719,54.1V66.863a4.3,4.3,0,0,1-4.291,4.291H13.018L7.47,74.323a.832.832,0,0,1-.413.11ZM4.291,51.476A2.63,2.63,0,0,0,1.663,54.1V66.863A2.63,2.63,0,0,0,4.291,69.49H7.058a.832.832,0,0,1,.832.832v1.846L12.384,69.6a.831.831,0,0,1,.413-.11H24.429a2.63,2.63,0,0,0,2.627-2.627V54.1a2.63,2.63,0,0,0-2.627-2.627Z" transform="translate(0 -49.813)" fill="#ef6024"/>
      </g>
    </g>
    <g id="Group_21117" data-name="Group 21117" transform="translate(6.758 55.27)">
      <path id="Path_64567" data-name="Path 64567" d="M91.042,131.206v-2.678H93.6a.832.832,0,0,0,0-1.663H91.042v-4.341h-.832a.832.832,0,0,0-.832.832v8.682a.832.832,0,0,0,.832.832h.832Z" transform="translate(-89.379 -122.484)" fill="#52b1e9"/>
      <path id="Path_64569" data-name="Path 64569" d="M93.037,131.206v-2.678H90.48a.832.832,0,1,1,0-1.663h2.557v-2.678c0-1.6-.008-1.678,0-1.663h.832a.832.832,0,0,1,.832.832v8.682a.832.832,0,0,1-.832.832h-.832Z" transform="translate(-87.379 -122.484)" fill="#52b1e9"/>
      <path id="Path_64568" data-name="Path 64568" d="M93.869,131.206H91.042v-2.678H93.6a.832.832,0,0,0,0-1.663H91.042v-2.678h2.826a.832.832,0,1,0,0-1.663H90.211a.832.832,0,0,0-.832.832v8.682a.832.832,0,0,0,.832.832h3.658a.832.832,0,1,0,0-1.663Z" transform="translate(-80.379 -122.484)" fill="#52b1e9"/>
    </g>
  </g>
</svg>
