<svg xmlns="http://www.w3.org/2000/svg" width="31.028" height="28.031" viewBox="0 0 31.028 28.031">
  <g id="Group_21119" data-name="Group 21119" transform="translate(-6275 -475)">
    <g id="Booking" transform="translate(6273.9 472.45)">
      <g id="Group_21118" data-name="Group 21118" transform="translate(1.1 2.55)">
        <path id="Path_64570" data-name="Path 64570" d="M28.274,28.505H5.837a2.665,2.665,0,0,1-2.662-2.662V8.855A2.665,2.665,0,0,1,5.837,6.192h2.5v.627a1.037,1.037,0,1,0,2.075,0V6.192H22.822v.627a1.037,1.037,0,1,0,2.075,0V6.192h2.494a2.666,2.666,0,0,1,2.662,2.662V26.266a1.037,1.037,0,0,0,2.075,0V8.855a4.743,4.743,0,0,0-4.737-4.737H24.9v-.53a1.037,1.037,0,1,0-2.075,0v.53H10.415v-.53a1.037,1.037,0,1,0-2.075,0v.53h-2.5A4.743,4.743,0,0,0,1.1,8.855V25.844a4.742,4.742,0,0,0,4.737,4.737H28.274a1.038,1.038,0,0,0,0-2.076Z" transform="translate(-1.1 -2.55)" fill="#ef6024"/>
        <path id="Path_64571" data-name="Path 64571" d="M8.253,12.244a1.2,1.2,0,1,0,1.2,1.2,1.2,1.2,0,0,0-1.2-1.2Z" transform="translate(-0.191 -1.071)" fill="#ef6024"/>
        <path id="Path_64572" data-name="Path 64572" d="M14.722,12.244a1.2,1.2,0,1,0,1.2,1.2,1.2,1.2,0,0,0-1.2-1.2Z" transform="translate(0.796 -1.071)" fill="#ef6024"/>
        <path id="Path_64573" data-name="Path 64573" d="M19.992,13.442a1.2,1.2,0,1,0,1.2-1.2,1.2,1.2,0,0,0-1.2,1.2Z" transform="translate(1.783 -1.071)" fill="#ef6024"/>
        <path id="Path_64586" data-name="Path 64586" d="M19.992,13.442a1.2,1.2,0,1,0,1.2-1.2,1.2,1.2,0,0,0-1.2,1.2Z" transform="translate(1.783 5.454)" fill="#ef6024"/>
        <path id="Path_64574" data-name="Path 64574" d="M8.253,17.905a1.2,1.2,0,1,0,1.2,1.2A1.2,1.2,0,0,0,8.253,17.905Z" transform="translate(-0.191 -0.207)" fill="#ef6024"/>
        <path id="Path_64575" data-name="Path 64575" d="M14.722,17.905a1.2,1.2,0,1,0,1.2,1.2A1.2,1.2,0,0,0,14.722,17.905Z" transform="translate(0.796 -0.207)" fill="#ef6024"/>
      </g>
    </g>
  </g>
</svg>
