<svg xmlns="http://www.w3.org/2000/svg" width="27.486" height="26" viewBox="0 0 27.486 26">
  <g id="now-in-stock" transform="translate(-3.25 -3.25)">
    <path id="Path_64502" data-name="Path 64502" d="M23.678,3.25H7.336A4.089,4.089,0,0,0,3.25,7.336V25.164A4.089,4.089,0,0,0,7.336,29.25H20.707a1.114,1.114,0,1,0,0-2.229H7.336a1.86,1.86,0,0,1-1.857-1.857V7.336A1.86,1.86,0,0,1,7.336,5.479h3.343V8.821a2.6,2.6,0,0,0,2.6,2.6h4.457a2.6,2.6,0,0,0,2.6-2.6V5.479h3.343a1.86,1.86,0,0,1,1.857,1.857v7.429a1.114,1.114,0,1,0,2.229,0V7.336A4.089,4.089,0,0,0,23.678,3.25ZM18.107,8.821a.372.372,0,0,1-.371.371H13.279a.372.372,0,0,1-.371-.371V5.479h5.2Z" transform="translate(0)" fill="#ef6024"/>
    <path id="Path_64503" data-name="Path 64503" d="M18.793,9.25a8.543,8.543,0,1,0,8.543,8.543A8.554,8.554,0,0,0,18.793,9.25Zm0,14.857a6.314,6.314,0,1,1,6.314-6.314A6.322,6.322,0,0,1,18.793,24.107Zm3.9-8.418a1.113,1.113,0,0,1-.309,1.545l-4.457,2.971a1.115,1.115,0,0,1-1.407-.14L15.032,18.58A1.115,1.115,0,0,1,16.609,17l.839.839,3.7-2.465a1.112,1.112,0,0,1,1.545.309Z" transform="translate(3.4 2.914)" fill="#52b1e9"/>
  </g>
</svg>
