<svg xmlns="http://www.w3.org/2000/svg" width="27.135" height="28" viewBox="0 0 27.135 28">
  <g id="Icon" transform="translate(-2.329 -2.039)">
    <path id="Path_64537" data-name="Path 64537" d="M19.136,30.029a5.33,5.33,0,0,1-2.427-.589A27.382,27.382,0,0,1,2.4,9.8a5.246,5.246,0,0,1,2.1-5.12L6.932,2.8a3.83,3.83,0,0,1,2.876-.687,3.773,3.773,0,0,1,2.511,1.543l1.655,2.258a3.872,3.872,0,0,1-.884,5.4l-1.6,1.15a22.318,22.318,0,0,0,5.373,7.379l1.585-1.15a3.858,3.858,0,0,1,5.387.842l1.655,2.272a3.858,3.858,0,0,1-.828,5.415l-2.441,1.767a5.176,5.176,0,0,1-3.086,1.038ZM9.2,4.162A1.838,1.838,0,0,0,8.166,4.5L5.739,6.267A3.142,3.142,0,0,0,4.477,9.339a25.25,25.25,0,0,0,13.2,18.236,3.17,3.17,0,0,0,3.311-.351l2.441-1.767a1.767,1.767,0,0,0,.379-2.441l-1.641-2.258a1.753,1.753,0,0,0-2.455-.393l-2.272,1.669a1.038,1.038,0,0,1-1.291,0A24.212,24.212,0,0,1,9.26,12.509a1.052,1.052,0,0,1,.351-1.248l2.272-1.655a1.753,1.753,0,0,0,.393-2.441L10.621,4.892a1.753,1.753,0,0,0-1.15-.7Z" transform="translate(0 0.01)" fill="#52b1e9"/>
    <g id="Group_21098" data-name="Group 21098" transform="translate(17.397 2.039)">
      <path id="Path_64538" data-name="Path 64538" d="M19.032,14.359a1.052,1.052,0,0,1-1.052-1.01,6.509,6.509,0,0,0-4.208-5.864,1.052,1.052,0,0,1-.617-1.4,1.038,1.038,0,0,1,1.4-.617,8.6,8.6,0,0,1,5.611,7.757,1.052,1.052,0,0,1-1.01,1.08Z" transform="translate(-13.07 -0.695)" fill="#f25220"/>
      <path id="Path_64539" data-name="Path 64539" d="M23.589,15.493a1.066,1.066,0,0,1-1.052-.954,12.625,12.625,0,0,0-7.6-10.479,1.053,1.053,0,1,1,.828-1.936,14.659,14.659,0,0,1,8.88,12.218,1.066,1.066,0,0,1-.954,1.15Z" transform="translate(-12.577 -2.039)" fill="#f25220"/>
    </g>
  </g>
</svg>
