<svg xmlns="http://www.w3.org/2000/svg" width="18.56" height="20" viewBox="0 0 18.56 20">
  <g id="_3844425_can_trash_icon" data-name="3844425_can_trash_icon" transform="translate(-3 -2)">
    <path id="XMLID_237_" d="M6,12V22.749A2.147,2.147,0,0,0,8.139,24.9h9.982a2.147,2.147,0,0,0,2.139-2.15V12Zm4.278,9.316a.713.713,0,1,1-1.426,0v-6.45a.713.713,0,1,1,1.426,0Zm3.565,0a.713.713,0,1,1-1.426,0v-6.45a.713.713,0,1,1,1.426,0Zm3.565,0a.713.713,0,1,1-1.426,0v-6.45a.713.713,0,1,1,1.426,0Z" transform="translate(-0.85 -2.899)" fill="#ef6023"/>
    <path id="XMLID_243_" d="M20.132,4.867H15.849V4.15A2.148,2.148,0,0,0,13.708,2H10.852A2.148,2.148,0,0,0,8.711,4.15v.717H4.428A1.432,1.432,0,0,0,3,6.3v.717a.716.716,0,0,0,.714.717H20.846a.716.716,0,0,0,.714-.717V6.3A1.432,1.432,0,0,0,20.132,4.867ZM10.138,4.15a.716.716,0,0,1,.714-.717h2.855a.716.716,0,0,1,.714.717v.717H10.138Z" fill="#52b1e9"/>
  </g>
</svg>
