<svg xmlns="http://www.w3.org/2000/svg" width="20.46" height="20.556" viewBox="0 0 20.46 20.556">
  <g id="Untitled-1-02" transform="translate(-4.8 -4.799)">
    <g id="Layer_1" transform="translate(5 5)">
      <g id="Group_19307" data-name="Group 19307" transform="translate(0 0)">
        <path id="Union_135" data-name="Union 135" d="M-7283.019-536.112h-6.425a2.488,2.488,0,0,1-2.489-1.909,2.926,2.926,0,0,1-.067-.644v-14.783a2.482,2.482,0,0,1,2.534-2.553h12.406a2.462,2.462,0,0,1,2.491,2.509v5.838a.4.4,0,0,1-.134.311c-.357.355-.712.71-1.113,1.065v-7.148a1.235,1.235,0,0,0-1.332-1.33H-7289.4a1.227,1.227,0,0,0-1.354,1.352v14.7a1.248,1.248,0,0,0,1.354,1.354h6.738v1.243Zm1.9-8.056h-5.774a1.111,1.111,0,0,1-.269-.022.644.644,0,0,1-.469-.714.666.666,0,0,1,.6-.578h7.425a.659.659,0,0,1,.692.534.66.66,0,0,1-.692.78Zm-2.142-1.314h-.022Zm2.142-1.859h-5.774a1.114,1.114,0,0,1-.269-.022.644.644,0,0,1-.469-.714.666.666,0,0,1,.6-.578h7.425a.659.659,0,0,1,.692.534.66.66,0,0,1-.692.78Zm-2.142-1.314h-.022Zm2.074-1.658h-5.684a.959.959,0,0,1-.357-.046.659.659,0,0,1-.4-.736.65.65,0,0,1,.624-.534h7.379a.668.668,0,0,1,.714.512.656.656,0,0,1-.69.8Zm-2.052-1.316h-.022Z" transform="translate(7292 556)" fill="#ef6023" stroke="#ef6023" stroke-width="0.4"/>
        <path id="Path_62436" data-name="Path 62436" d="M50.022,60.207c.178-.78.379-1.538.513-2.3A3.775,3.775,0,0,1,51.672,55.9c1.739-1.761,3.522-3.522,5.261-5.261a1.258,1.258,0,0,1,1.873,0c.268.268.557.535.825.825a1.252,1.252,0,0,1,0,1.806c-1.761,1.761-3.522,3.567-5.328,5.283a4.167,4.167,0,0,1-2.118,1.182c-.713.134-1.427.312-2.185.49Zm1.605-3.3c.58.557,1.092,1.092,1.65,1.65a16.52,16.52,0,0,0,2.341-2.162c.78-.736,1.516-1.516,2.252-2.229-.6-.6-1.159-1.182-1.761-1.783-1.471,1.538-3.032,2.987-4.481,4.548Z" transform="translate(-40.015 -40.229)" fill="#52b1e9" stroke="#52b1e9" stroke-width="0.4"/>
      </g>
    </g>
  </g>
</svg>
