<svg xmlns="http://www.w3.org/2000/svg" width="22.112" height="20.3" viewBox="0 0 22.112 20.3">
  <g id="Group_21105" data-name="Group 21105" transform="translate(-21.856 -450.85)">
    <path id="Exclusion_2" data-name="Exclusion 2" d="M-7250.49-37.524h-2.574v-.022a1.263,1.263,0,0,1-.715-.889,1.713,1.713,0,0,1,.232-1.4,1.088,1.088,0,0,1,.7-.352c.192-.014.4-.021.668-.021l.369,0h.1l.3,0c.152,0,.278,0,.4-.006l.1,0a.942.942,0,0,1,1.018.684,1.289,1.289,0,0,1,.166-.041.647.647,0,0,0,.165-.047,6.383,6.383,0,0,0,2.838-2.312,1.618,1.618,0,0,0,.286-.9c.015-1.478.01-2.954,0-4.382,0-.641,0-1.438,0-2.2v-.551h.881s0,0,.014,0a7.253,7.253,0,0,1,1.306.465,3.91,3.91,0,0,1,1.584,1.584,5.115,5.115,0,0,1,.461,2.795,3.948,3.948,0,0,1-3.475,3.763.651.651,0,0,0-.441.242,7.66,7.66,0,0,1-3.431,2.508.842.842,0,0,0-.308.264c-.111.132-.218.272-.321.407l0,.006c-.1.133-.206.27-.314.4Zm-9.3-3.763h0c-.189-.038-.381-.063-.566-.087a4.058,4.058,0,0,1-1.017-.219,3.773,3.773,0,0,1-2.6-3.478,4.8,4.8,0,0,1,.529-2.992,3.738,3.738,0,0,1,1.5-1.431,6.778,6.778,0,0,1,1.24-.506l.014,0h.9v8.711Z" transform="translate(7286 508.523)" fill="#52b1e9" stroke="#52b1e9" stroke-width="0.3"/>
    <g id="Untitled-1-05" transform="translate(18.018 446.4)">
      <g id="Layer_1" transform="translate(4.982 4.6)">
        <path id="Path_62445" data-name="Path 62445" d="M21.544,12.015a6.187,6.187,0,0,0-2.653-5.039A6.275,6.275,0,0,0,11.7,6.4a6.567,6.567,0,0,0-3.5,5.765c0,.025-.9-.008-.891,0A7.673,7.673,0,0,1,13.193,4.8c.352-.088.726-.132,1.078-.2h1.144c.4.066.814.132,1.21.22a7.433,7.433,0,0,1,5.743,7.195Z" transform="translate(-4.982 -4.6)" fill="#ef6023" stroke="#ef6023" stroke-width="0.3"/>
      </g>
    </g>
  </g>
</svg>
