<svg xmlns="http://www.w3.org/2000/svg" width="21.71" height="20.299" viewBox="0 0 21.71 20.299">
  <g id="Untitled-1-03" transform="translate(-4.85 -7.806)">
    <g id="Layer_1" transform="translate(5 7.956)">
      <g id="Group_19311" data-name="Group 19311" transform="translate(0 0)">
        <path id="Path_62448" data-name="Path 62448" d="M32.09,11.793V8.822a.814.814,0,0,1,.713-.856.756.756,0,0,1,.689.261c.879.879,1.783,1.759,2.686,2.638l3.637,3.565a.831.831,0,0,1,0,1.284c-1.45,1.45-2.924,2.876-4.4,4.326-.666.642-1.331,1.307-2,1.949a.757.757,0,0,1-.879.143.748.748,0,0,1-.452-.689V18.4a7.09,7.09,0,0,0-.784.1,13.347,13.347,0,0,0-6.774,3.351,1.126,1.126,0,0,1-.784.38.822.822,0,0,1-.761-.879,15.839,15.839,0,0,1,.951-3.9,8.435,8.435,0,0,1,3.328-4.16,8.672,8.672,0,0,1,3.209-1.236c.523-.1,1.046-.143,1.616-.214Zm-7.416,8.034.048.048A14,14,0,0,1,33.516,16.9v3.042c1.664-1.64,3.28-3.233,4.92-4.825l-4.873-4.8h-.048v2.852a5.423,5.423,0,0,0-.642.048,14.05,14.05,0,0,0-2.448.285,6.811,6.811,0,0,0-3.589,1.973,8.824,8.824,0,0,0-1.854,3.28c-.119.357-.214.713-.309,1.07Z" transform="translate(-18.708 -7.956)" fill="#52b1e9" stroke="#52b1e9" stroke-width="0.3"/>
        <path id="Path_62449" data-name="Path 62449" d="M14.294,32.616H8.637a3.462,3.462,0,0,1-3.328-2.139A3.6,3.6,0,0,1,5,28.979V17.689A3.554,3.554,0,0,1,8.494,14.1h4.35a.673.673,0,0,1,.666.428.653.653,0,0,1-.119.737.773.773,0,0,1-.666.261H8.589a2.11,2.11,0,0,0-1.9,1.093A1.975,1.975,0,0,0,6.4,17.665V29a2.135,2.135,0,0,0,2.21,2.21H19.9a2.157,2.157,0,0,0,2.21-2.187V27.672a.7.7,0,0,1,.689-.737.721.721,0,0,1,.713.737v1.521a3.542,3.542,0,0,1-2.329,3.233,4.217,4.217,0,0,1-1.331.214H14.294Z" transform="translate(-5 -12.64)" fill="#ef6023" stroke="#ef6023" stroke-width="0.3"/>
      </g>
    </g>
  </g>
</svg>
