<svg xmlns="http://www.w3.org/2000/svg" width="13.11" height="13.984" viewBox="0 0 13.11 13.984">
  <g id="share_1_" data-name="share (1)" transform="translate(-16)">
    <g id="Group_20924" data-name="Group 20924" transform="translate(16)">
      <path id="Path_64437" data-name="Path 64437" d="M26.652,9.068a2.449,2.449,0,0,0-1.971,1L20.807,8.088a2.319,2.319,0,0,0-.072-1.6l4.054-2.44a2.445,2.445,0,1,0-.6-1.585,2.435,2.435,0,0,0,.171.884L20.3,5.789a2.454,2.454,0,1,0,.155,3.038L24.314,10.8a2.424,2.424,0,0,0-.12.721,2.458,2.458,0,1,0,2.458-2.458Z" transform="translate(-16)" fill="#324356"/>
    </g>
  </g>
</svg>
