<svg xmlns="http://www.w3.org/2000/svg" width="28.999" height="28.999" viewBox="0 0 28.999 28.999">
  <path id="Path_64536" data-name="Path 64536" d="M17.959,16.195c-.549.224-.9,1.084-1.255,1.522a.526.526,0,0,1-.68.147,9.568,9.568,0,0,1-4.776-4.091.585.585,0,0,1,.074-.8,3.235,3.235,0,0,0,.868-1.409c.206-1.205-1.37-4.944-3.45-3.25C2.751,13.2,18.728,26.137,21.612,19.137,22.427,17.153,18.869,15.822,17.959,16.195ZM14.5,26.466a11.955,11.955,0,0,1-6.026-1.629,1.274,1.274,0,0,0-.974-.128L3.533,25.8l1.381-3.042a1.265,1.265,0,0,0-.126-1.264A11.965,11.965,0,1,1,14.5,26.466ZM14.5,0A14.5,14.5,0,0,0,2.313,22.358l-2.2,4.851A1.266,1.266,0,0,0,1.264,29c.817,0,5.27-1.4,6.4-1.711A14.5,14.5,0,1,0,14.5,0Z" transform="translate(0.003)" fill="#39ae41" fill-rule="evenodd"/>
</svg>
