<svg xmlns="http://www.w3.org/2000/svg" width="11.74" height="8.386" viewBox="0 0 11.74 8.386">
  <path id="arrow_right_alt_24dp_5F6368_FILL0_wght400_GRAD0_opsz24_1_" data-name="arrow_right_alt_24dp_5F6368_FILL0_wght400_GRAD0_opsz24 (1)" d="M169.158-697.573h-8.4a.729.729,0,0,1-.537-.217.729.729,0,0,1-.217-.537.729.729,0,0,1,.217-.537.73.73,0,0,1,.537-.217h8.4l-2.148-2.148a.69.69,0,0,1-.217-.528.8.8,0,0,1,.217-.528.768.768,0,0,1,.537-.236.7.7,0,0,1,.537.217l3.448,3.448a.661.661,0,0,1,.16.245.834.834,0,0,1,.047.283.834.834,0,0,1-.047.283.662.662,0,0,1-.16.245l-3.448,3.448a.7.7,0,0,1-.537.217.769.769,0,0,1-.537-.235.8.8,0,0,1-.217-.528.69.69,0,0,1,.217-.528Z" transform="translate(-160 702.52)" fill="#fff"/>
</svg>
