<svg xmlns="http://www.w3.org/2000/svg" width="20.8" height="20.8" viewBox="0 0 20.8 20.8">
  <g id="youtube_2_" data-name="youtube (2)" transform="translate(0)">
    <path id="Path_64404" data-name="Path 64404" d="M16.694,20.8H4.105C1.234,20.8,0,19.567,0,16.695V4.105C0,1.234,1.233,0,4.1,0h12.59C19.566,0,20.8,1.233,20.8,4.105V16.695c0,2.872-1.233,4.105-4.105,4.105" transform="translate(0 0)" fill="red" fill-rule="evenodd"/>
    <path id="Path_64407" data-name="Path 64407" d="M22.991,17.675a.65.65,0,0,0-.991.553V26.3a.65.65,0,0,0,.991.553l6.56-4.037a.65.65,0,0,0,0-1.107Z" transform="translate(-14.85 -11.866)" fill="#fff" fill-rule="evenodd"/>
  </g>
</svg>
