<svg xmlns="http://www.w3.org/2000/svg" width="21.053" height="20" viewBox="0 0 21.053 20">
  <g id="chat" transform="translate(-1.25 -1.25)">
    <path id="Path_63359" data-name="Path 63359" d="M19.556,10.308a.663.663,0,0,1,.877.335A6.571,6.571,0,0,1,20.99,12.9a14.263,14.263,0,0,1,0,1.847,6.672,6.672,0,0,1-1.217,3.222c-.135.267-.077.707.248,1.316l.018.033a4.964,4.964,0,0,1,.288.6,1.014,1.014,0,0,1-.048.886,1,1,0,0,1-.7.463,3.774,3.774,0,0,1-.586.044h-.036a3.666,3.666,0,0,1-2.352-.7l-.188-.136c-.074.028-.17.067-.3.121a4.148,4.148,0,0,1-1.258.284,24.447,24.447,0,0,1-3.159,0A6.405,6.405,0,0,1,7.99,19.387a.664.664,0,0,1,.846-1.022,5.078,5.078,0,0,0,2.95,1.193,23.123,23.123,0,0,0,2.986,0,2.826,2.826,0,0,0,.845-.189l.25.615-.25-.615.016-.007c.167-.068.317-.129.436-.17h0a1.157,1.157,0,0,1,.51-.076l-.08.659.08-.659a1.111,1.111,0,0,1,.458.182c.1.061.21.144.331.232l.015.011a2.33,2.33,0,0,0,1.5.442l-.039-.072a2.738,2.738,0,0,1-.226-2.609q.014-.024.029-.047a5.391,5.391,0,0,0,1.012-2.594,12.943,12.943,0,0,0,0-1.673,5.245,5.245,0,0,0-.445-1.8.663.663,0,0,1,.335-.876Zm-.471,10.076h0Zm.249-.425h0Z" transform="translate(1.282 -0.059)" fill="#fff" fill-rule="evenodd"/>
    <g id="Group_20653" data-name="Group 20653" transform="translate(1.25 1.25)">
      <path id="Path_63360" data-name="Path 63360" d="M6.75,11.452a.664.664,0,0,0,.664.664h5.308a.664.664,0,0,0,0-1.327H7.414A.664.664,0,0,0,6.75,11.452Zm0-3.539a.664.664,0,0,0,.664.664h2.654a.664.664,0,0,0,0-1.327H7.414A.664.664,0,0,0,6.75,7.914Z" transform="translate(-0.868 -1.942)" fill="#fff" fill-rule="evenodd"/>
      <path id="Path_63361" data-name="Path 63361" d="M12.235,2.629a30.981,30.981,0,0,0-3.572,0A6.012,6.012,0,0,0,2.774,7.895a12.382,12.382,0,0,0,0,1.791,5.451,5.451,0,0,0,1.217,2.79c.012.015.022.031.032.047a2.615,2.615,0,0,1-.27,2.738l-.085.142H3.7a3.088,3.088,0,0,0,1.866-.479l.017-.011c.145-.094.281-.182.394-.247a1.369,1.369,0,0,1,.528-.188,1.486,1.486,0,0,1,.591.079h0c.141.044.318.108.519.181l.018.007a3.769,3.769,0,0,0,1.023.2,31,31,0,0,0,3.572,0,6.012,6.012,0,0,0,5.889-5.266,12.375,12.375,0,0,0,0-1.791,6.012,6.012,0,0,0-5.889-5.266ZM8.565,1.3a32.659,32.659,0,0,1,3.768,0c3.912.229,7.024,3.014,7.28,6.5a13.567,13.567,0,0,1,0,1.964c-.256,3.49-3.367,6.275-7.28,6.5a32.643,32.643,0,0,1-3.768,0,5.416,5.416,0,0,1-1.488-.3c-.169-.061-.29-.105-.382-.136-.061.038-.139.088-.244.157a4.7,4.7,0,0,1-2.782.734H3.626a5.015,5.015,0,0,1-.694-.046,1.165,1.165,0,0,1-.805-.474.937.937,0,0,1-.053-.905,5.048,5.048,0,0,1,.342-.633l.02-.034c.39-.652.472-1.142.3-1.449A6.644,6.644,0,0,1,1.286,9.772a13.562,13.562,0,0,1,0-1.964c.256-3.49,3.367-6.275,7.28-6.5Z" transform="translate(-1.25 -1.25)" fill="#fff" fill-rule="evenodd"/>
    </g>
  </g>
</svg>
