<svg xmlns="http://www.w3.org/2000/svg" width="20" height="20" viewBox="0 0 20 20">
  <g id="Group_20694" data-name="Group 20694" transform="translate(-1.053 -1.053)">
    <path id="Path_63428" data-name="Path 63428" d="M17.542,17.382a.632.632,0,0,1-.632.632H14.382a.632.632,0,0,1,0-1.264H16.91A.632.632,0,0,1,17.542,17.382Z" transform="translate(-0.779 -1.176)" fill="#fff"/>
    <path id="Path_63429" data-name="Path 63429" d="M1.25,5.2A3.953,3.953,0,0,1,5.2,1.25H17.3A3.953,3.953,0,0,1,21.25,5.2V17.3A3.953,3.953,0,0,1,17.3,21.25H5.2A3.953,3.953,0,0,1,1.25,17.3ZM13.808,2.645H8.692V8.331l2.1-.9a1.163,1.163,0,0,1,.916,0l2.1.9Zm-6.512,0V8.684A1.163,1.163,0,0,0,8.917,9.753l2.333-1,2.333,1A1.163,1.163,0,0,0,15.2,8.684V2.645H17.3A2.558,2.558,0,0,1,19.855,5.2V17.3A2.558,2.558,0,0,1,17.3,19.855H5.2A2.558,2.558,0,0,1,2.645,17.3V5.2A2.558,2.558,0,0,1,5.2,2.645Z" transform="translate(-0.197 -0.197)" fill="#fff" fill-rule="evenodd"/>
  </g>
</svg>
