<svg xmlns="http://www.w3.org/2000/svg" width="22.634" height="20.25" viewBox="0 0 22.634 20.25">
  <g id="Icon" transform="translate(-1.25 -2.502)">
    <path id="Path_63425" data-name="Path 63425" d="M2.181,10.969a1.749,1.749,0,0,1,0-3.092l8.753-4.954a3.379,3.379,0,0,1,3.268,0l8.753,4.954a1.749,1.749,0,0,1,0,3.092L14.2,15.922a3.374,3.374,0,0,1-3.268,0Zm.763-1.415L11.7,14.506a1.8,1.8,0,0,0,1.741,0L22.19,9.554c.058-.032.115-.071.115-.13s-.057-.1-.115-.132L13.438,4.339a1.8,1.8,0,0,0-1.741,0L2.944,9.292c-.058.033-.115.071-.115.132S2.886,9.521,2.944,9.554Z" fill="#fff" fill-rule="evenodd"/>
    <path id="Path_63426" data-name="Path 63426" d="M20.079,10.5a.779.779,0,0,1,.8.75v4.5A3.9,3.9,0,0,1,16.86,19.5H8.274A3.9,3.9,0,0,1,4.25,15.75v-4.5a.779.779,0,0,1,.8-.75l7.315,3.907Z" transform="translate(0 1.002)" fill="#fff" fill-rule="evenodd"/>
    <path id="Path_63427" data-name="Path 63427" d="M11.47,9.78a.75.75,0,0,1,1.06-1.06l3.5,3.5a.747.747,0,0,1,.22.53v8a.75.75,0,0,1-1.5,0V13.061Z" transform="translate(0.687 1.002)" fill="#fff" stroke="#f4996c" stroke-width="0.5" fill-rule="evenodd"/>
  </g>
</svg>
