<svg xmlns="http://www.w3.org/2000/svg" width="17.975" height="20" viewBox="0 0 17.975 20">
  <g id="Layer_2" data-name="Layer 2" transform="translate(-3.252 -2.25)">
    <path id="Path_63424" data-name="Path 63424" d="M12.24,11.994A4.872,4.872,0,1,0,7.36,7.122a4.876,4.876,0,0,0,4.88,4.872Zm8.7,5.713-.133-.3A6.181,6.181,0,0,0,15.2,13.532h-5.9a6.179,6.179,0,0,0-5.61,3.874l-.143.32a3.405,3.405,0,0,0,.251,3.2A2.8,2.8,0,0,0,6.145,22.25H18.324a2.8,2.8,0,0,0,2.363-1.325,3.421,3.421,0,0,0,.253-3.218Z" fill="#fff"/>
  </g>
</svg>
