<svg xmlns="http://www.w3.org/2000/svg" width="17.975" height="20" viewBox="0 0 17.975 20">
  <g id="Layer_2" data-name="Layer 2" transform="translate(-3.252 -2.25)">
    <path id="Path_63424" data-name="Path 63424" d="M12.24,11.994A4.872,4.872,0,1,0,7.36,7.122a4.876,4.876,0,0,0,4.88,4.872Zm0-8.205A3.333,3.333,0,1,1,8.9,7.122,3.336,3.336,0,0,1,12.24,3.788Zm8.7,13.918-.133-.3A6.181,6.181,0,0,0,15.2,13.532h-5.9a6.179,6.179,0,0,0-5.61,3.874l-.143.32a3.405,3.405,0,0,0,.251,3.2A2.8,2.8,0,0,0,6.145,22.25H18.324a2.8,2.8,0,0,0,2.363-1.325,3.421,3.421,0,0,0,.253-3.218ZM19.4,20.085a1.292,1.292,0,0,1-1.073.627H6.145a1.281,1.281,0,0,1-1.064-.623,1.843,1.843,0,0,1-.133-1.744l.143-.32a4.661,4.661,0,0,1,4.2-2.955h5.9a4.661,4.661,0,0,1,4.2,2.958l.133.3a1.866,1.866,0,0,1-.133,1.757Z" fill="#fff"/>
  </g>
</svg>
