<?xml version="1.0" encoding="utf-8"?>
<!-- Generator: Adobe Illustrator 16.0.0, SVG Export Plug-In . SVG Version: 6.00 Build 0)  -->
<!DOCTYPE svg PUBLIC "-//W3C//DTD SVG 1.1//EN" "http://www.w3.org/Graphics/SVG/1.1/DTD/svg11.dtd">
<svg version="1.1" id="Layer_1" xmlns="http://www.w3.org/2000/svg" xmlns:xlink="http://www.w3.org/1999/xlink" x="0px" y="0px"
	 width="20px" height="20px" viewBox="0 0 20 20" enable-background="new 0 0 20 20" xml:space="preserve">
<path id="Path_9" fill="#000" d="M19.528,18.52l-4.52-4.521h-0.048c2.979-3.516,2.547-8.781-0.968-11.762
	C10.478-0.744,5.213-0.313,2.23,3.204c-2.979,3.515-2.549,8.782,0.969,11.762c3.111,2.64,7.679,2.64,10.794,0c0,0,0,0.032,0,0.049
	l4.524,4.521c0.282,0.279,0.739,0.279,1.021,0c0.281-0.283,0.281-0.741,0-1.023l0,0L19.528,18.52z M8.604,15.539
	c-3.841,0-6.952-3.115-6.952-6.956c0-3.842,3.111-6.954,6.952-6.954c3.838,0,6.951,3.112,6.953,6.953
	c0.002,3.84-3.114,6.957-6.951,6.957C8.605,15.539,8.605,15.539,8.604,15.539z"/>
</svg>
